<?xml version="1.0" standalone="no"?>
<!DOCTYPE svg PUBLIC "-//W3C//DTD SVG 20010904//EN"
 "http://www.w3.org/TR/2001/REC-SVG-20010904/DTD/svg10.dtd">
<svg version="1.0" xmlns="http://www.w3.org/2000/svg"
 width="860.000000pt" height="152.000000pt" viewBox="0 0 860.000000 152.000000"
 preserveAspectRatio="xMidYMid meet">
<metadata>
Created by potrace 1.16, written by Peter Selinger 2001-2019
</metadata>
<g transform="translate(0.000000,152.000000) scale(0.100000,-0.100000)"
fill="#000000" stroke="none">
<path d="M3495 1496 c-94 -16 -141 -32 -238 -83 -86 -44 -224 -177 -276 -265
-93 -160 -126 -376 -82 -548 69 -275 262 -472 533 -546 87 -24 271 -24 358 0
214 58 386 198 481 391 56 115 73 189 73 325 0 137 -17 210 -76 327 -145 290
-458 451 -773 399z m220 -321 c261 -68 390 -356 269 -600 -50 -99 -154 -183
-264 -211 -303 -78 -582 186 -520 491 16 80 54 148 117 211 105 106 253 146
398 109z"/>
<path d="M5012 1500 c-257 -35 -443 -188 -472 -388 -33 -233 119 -382 485
-477 218 -56 288 -82 320 -115 34 -35 38 -83 13 -122 -56 -85 -294 -90 -407
-7 -26 18 -50 50 -71 93 l-33 66 -168 0 -169 0 6 -43 c20 -126 75 -229 171
-317 67 -61 144 -102 250 -132 102 -29 304 -31 403 -5 165 44 286 133 342 252
29 64 32 79 33 165 0 88 -3 101 -33 162 -66 134 -187 205 -487 284 -251 66
-315 99 -315 161 0 38 57 88 120 107 149 44 288 -4 335 -117 l15 -37 165 0
165 0 0 29 c0 44 -36 151 -68 201 -112 177 -352 273 -600 240z"/>
<path d="M0 769 l0 -710 433 3 c463 4 484 6 597 61 62 29 131 101 166 172 27
56 29 68 29 175 0 105 -2 120 -28 171 -25 53 -91 124 -146 160 l-24 15 47 61
c55 71 76 131 76 223 0 153 -65 260 -197 322 -106 50 -179 57 -585 58 l-368 0
0 -711z m758 398 c66 -36 89 -114 56 -196 -27 -67 -57 -75 -281 -79 l-193 -4
0 152 0 152 193 -4 c162 -2 197 -6 225 -21z m39 -560 c45 -24 65 -58 65 -112
1 -59 -17 -92 -67 -118 -36 -20 -58 -22 -247 -25 l-208 -4 0 142 0 141 213 -3
c180 -3 217 -6 244 -21z"/>
<path d="M1865 1461 c-180 -44 -343 -166 -443 -332 -138 -231 -135 -522 9
-760 63 -104 181 -210 298 -266 223 -107 422 -106 650 4 79 38 108 59 180 131
145 146 208 286 218 483 12 225 -71 430 -236 580 -79 72 -213 140 -325 163
-101 21 -260 20 -351 -3z m354 -116 c91 -22 156 -60 232 -136 199 -198 214
-540 32 -739 -130 -142 -294 -160 -409 -45 -51 51 -74 99 -88 187 l-7 37 -44
-16 c-61 -20 -138 -92 -171 -158 -14 -30 -29 -55 -33 -55 -18 0 -96 102 -130
167 -66 131 -66 346 1 477 50 98 142 191 238 241 98 51 260 68 379 40z"/>
<path d="M2255 1192 c-77 -52 -145 -136 -192 -237 -36 -79 -39 -82 -80 -94
-29 -7 -59 -27 -88 -56 -48 -47 -62 -85 -25 -65 12 6 42 10 68 8 44 -3 47 -5
47 -30 1 -43 20 -56 54 -35 27 16 29 16 50 -7 12 -12 27 -42 35 -67 l13 -44
21 45 c23 48 28 122 12 165 -8 22 -5 32 26 72 69 90 117 209 127 315 7 70 -2
74 -68 30z"/>
<path d="M5830 1320 l0 -160 250 0 250 0 0 -550 0 -550 175 0 175 0 0 550 0
550 250 0 250 0 0 160 0 160 -675 0 -675 0 0 -160z"/>
<path d="M7320 760 l0 -720 170 0 170 0 0 180 0 180 134 0 134 0 30 -52 c16
-29 64 -110 106 -181 l78 -127 210 0 c165 0 208 3 202 13 -4 6 -52 77 -107
157 -169 246 -177 258 -177 263 0 2 13 10 28 16 78 32 183 186 217 316 48 186
-13 405 -149 532 -85 81 -167 119 -276 133 -46 5 -239 10 -427 10 l-343 0 0
-720z m746 381 c70 -32 123 -120 123 -206 1 -86 -76 -192 -156 -214 -21 -6
-113 -11 -205 -11 l-168 0 0 225 0 225 183 0 c156 0 188 -3 223 -19z"/>
</g>
</svg>
